<svg width="472" height="622" viewBox="0 0 472 622" fill="none" xmlns="http://www.w3.org/2000/svg">
<g clip-path="url(#clip0_0_33)">
<g opacity="0.08">
<path d="M355.792 374.007L393.629 389.331C411.064 396.393 430.307 396.393 447.743 389.367L447.851 389.331C472.231 379.467 499.107 379.467 523.524 389.331C541.031 396.393 560.275 396.393 577.746 389.331L615.619 374.007V234.96H355.756V374.007H355.792ZM435.046 311.618H472.955V261.058L485.724 248.246L498.456 261.058V311.618H536.365L549.423 362.177H523.958H498.492H497.082V338.335C497.082 332.038 492.018 326.942 485.76 326.942C479.502 326.942 474.438 332.038 474.438 338.335V362.177H473.533H472.991H447.525H422.024L435.046 311.618Z" fill="white"/>
<path d="M615.618 403.71L577.746 419.035C560.275 426.096 541.031 426.096 523.523 419.035C499.143 409.17 472.231 409.17 447.851 419.035L447.742 419.071C430.271 426.096 411.063 426.096 393.628 419.035L355.756 403.71V480.259C355.756 480.259 353.513 561.467 485.687 622C617.861 561.504 615.618 480.259 615.618 480.259V403.71ZM549.423 557.281H523.957H522.547V531.51C522.547 528.926 521.353 526.451 519.255 524.922C509.995 518.042 499.903 524.558 499.903 533.439V557.281H498.456H472.991H471.58V531.51C471.58 528.926 470.386 526.451 468.288 524.922C458.992 518.042 448.9 524.558 448.9 533.439V557.281H447.489H422.024V473.234L434.756 460.385L447.525 473.234V506.722H472.991V456.163L485.759 443.35L498.492 456.163V506.722H523.994V473.234L536.69 460.385L549.459 473.234V557.281H549.423Z" fill="white"/>
<path d="M495.78 63.3357L487.351 36.1451L504.606 30.7214L499.903 15.6155L482.649 21.0391L476.102 0L461.09 4.73204L467.637 25.7711L450.383 31.1946L455.086 46.3005L472.34 40.877L479.285 63.2265C420.686 64.9373 371.491 88.9975 355.828 121.248V169.587H377.568V191.426H355.828V210.354H615.691V191.426H593.988V169.587H615.691V121.248V121.102C600.246 89.3979 552.968 65.7745 495.78 63.3357ZM439.821 191.426H418.081V169.587H439.821V191.426ZM459.824 150.659H459.535L428.969 119.901L399.054 150.004C399.018 136.936 391.024 125.725 379.666 121.066C393.194 104.54 421.626 89.4343 459.824 84.5567V150.659ZM485.724 195.176C477.657 195.176 471.146 188.587 471.146 180.506C471.146 172.426 477.693 165.837 485.724 165.837C493.754 165.837 500.301 172.426 500.301 180.506C500.301 188.587 493.754 195.176 485.724 195.176ZM553.33 191.426H531.59V169.587H553.33V191.426ZM572.357 150.004L542.442 119.937L511.876 150.695H511.587V84.5567C549.894 89.3615 578.506 104.431 592.107 120.957C580.568 125.47 572.393 136.754 572.357 150.004Z" fill="#D2B47D"/>
<path d="M264.348 336.661L333.799 303.064V236.743L304.825 254.689L313.724 285.774L247.239 294.182C228.429 254.798 198.623 236.889 198.623 236.889L244.381 236.379L249.59 218.726H211.717L217.541 203.328H251.254L257.367 177.448C255.956 177.557 251.29 177.667 249.879 177.667C231.648 177.667 215.154 170.241 203.217 158.229H136.008L151.02 176.029L121.142 223.749H143.46L124.542 268.848H146.426L139.372 321.155L161.51 323.885L124.252 406.767C123.854 407.859 123.384 408.915 122.842 409.934L122.805 410.006C117.886 419.216 108.264 425.476 97.1954 425.513C97.123 425.513 97.0507 425.549 96.9783 425.549C96.1825 425.549 95.3867 425.44 94.5909 425.367C94.3739 425.331 94.1569 425.331 93.9398 425.331C93.2887 425.258 92.6738 425.149 92.0227 425.04C91.5163 424.967 90.9737 424.858 90.4673 424.748C89.9609 424.639 89.4544 424.494 88.9842 424.348C88.2969 424.166 87.6458 423.911 86.9947 423.693C86.633 423.547 86.3074 423.438 85.9457 423.329C84.9329 422.892 83.9562 422.455 82.9796 421.909C82.8711 421.836 82.7264 421.764 82.6179 421.691C81.7497 421.181 80.9178 420.635 80.0858 420.053C79.9049 419.907 79.7241 419.762 79.5432 419.652C78.7474 419.034 77.9516 418.378 77.192 417.687C77.1196 417.614 77.0473 417.541 76.975 417.505C72.5981 413.319 69.4873 407.822 68.3297 401.634C68.2936 401.38 68.2574 401.125 68.2212 400.87C68.1127 400.069 68.0042 399.305 67.9318 398.504C67.8957 397.995 67.8595 397.449 67.8595 396.939C67.8595 396.684 67.8233 396.466 67.8233 396.211C67.8233 395.92 67.8595 395.629 67.8595 395.337C67.8595 394.719 67.8957 394.063 67.968 393.444C68.0042 393.044 68.0765 392.68 68.1127 392.28C68.4383 389.805 69.0894 387.366 70.0298 385C70.066 384.891 70.1384 384.745 70.1745 384.636C70.3554 384.199 70.5001 383.762 70.7171 383.325L97.6656 326.615C102.947 315.476 102.223 302.554 95.6761 292.107C89.1289 281.661 77.8793 275.4 65.5806 275.4H43.5878H0C0 292.981 14.1434 307.213 31.6147 307.213C40.0429 307.213 47.6753 303.865 53.3544 298.477H53.7884C56.3567 296.33 59.6122 294.983 63.2294 294.983C71.4767 294.983 78.1686 301.717 78.1686 310.016C78.1686 310.089 78.1686 310.125 78.1325 310.198C78.3133 312.382 77.9154 314.566 76.9388 316.641L49.9903 373.352C42.1771 389.768 43.2984 408.732 52.9203 424.13C62.506 439.454 78.9644 448.627 96.9421 448.699C99.221 465.735 90.9013 497.876 45.0709 499.987L10.1644 607.876H99.438L89.5991 575.953L43.7325 585.126C47.0242 568.091 64.5678 518.114 156.482 527.76C156.482 527.76 148.958 466.026 186.469 429.99C176.377 451.866 184.335 490.268 184.335 490.268L237.508 492.925C223.546 524.193 180.862 528.087 180.862 528.087C244.887 553.458 194.246 607.876 194.246 607.876H285.473L275.634 575.953L233.276 584.434L276.755 489.831L200.793 419.034C224.956 404.365 261.997 398.686 318.426 412.918L333.799 417.141V347.544L304.825 365.489L312.349 393.845L180.717 326.323L264.348 336.661Z" fill="#D2B47D"/>
</g>
</g>
<defs>
<clipPath id="clip0_0_33">
<rect width="472" height="622" fill="white"/>
</clipPath>
</defs>
</svg>
